<svg xmlns="http://www.w3.org/2000/svg" width="175.053" height="42" viewBox="0 0 175.053 42">
  <path id="Trazado_1" data-name="Trazado 1" d="M79.267,43.18a7.482,7.482,0,0,0-3.209-4.727,7.082,7.082,0,0,0-5.513-1,7.274,7.274,0,0,0-4.587,3.308L56.583,55.905,47.206,40.753a7.269,7.269,0,0,0-4.588-3.308,8.85,8.85,0,0,0-3.459,0,7.269,7.269,0,0,0-4.588,3.306L25.223,55.859,15.874,40.751a7.2,7.2,0,0,0-10.1-2.3A7.685,7.685,0,0,0,3.538,48.856L18.713,73.381a7.406,7.406,0,0,0,2.554,2.89h0a7.108,7.108,0,0,0,3.578,1.172l.1,0c.08,0,.161.01.243.01l.035,0,.038,0c.082,0,.162-.006.245-.01l.093,0a7.109,7.109,0,0,0,3.58-1.172,7.4,7.4,0,0,0,2.572-2.921l9.138-14.767,9.522,15.385c.042.069.093.134.137.2l.057.081c.117.173.241.341.372.5.022.029.047.058.071.086q.2.242.422.466l.068.065c.155.153.316.3.484.435l.066.054q.255.2.526.385l.044.031v0c.029.019.06.036.091.056.115.071.228.144.347.209.15.084.3.161.455.234.064.031.13.058.2.086q.238.1.482.19l.139.046a7.026,7.026,0,0,0,.938.24l.133.023q.14.023.279.04l.194.021.234.019c.124.008.248.012.371.013l.06,0h.016c.035,0,.069,0,.1,0,.12,0,.241-.006.36-.013.084-.006.168-.015.252-.023s.15-.015.223-.025.172-.027.257-.042.152-.025.226-.04l.226-.052c.095-.023.188-.048.281-.073.053-.015.108-.031.161-.048.139-.042.277-.09.414-.142l.02-.006a7.332,7.332,0,0,0,3.64-3.016L78.292,48.86A7.666,7.666,0,0,0,79.267,43.18ZM18.047,68.374,5.266,47.721a5.53,5.53,0,0,1,1.608-7.49,5.123,5.123,0,0,1,2.822-.85,5.227,5.227,0,0,1,4.447,2.506l9.861,15.937-4.973,8.039A7.572,7.572,0,0,0,18.047,68.374Zm11.592,4.458a5.178,5.178,0,0,1-7.269,1.657A5.529,5.529,0,0,1,20.761,67L33.806,45.917a7.64,7.64,0,0,0,1.064,2.94l4.8,7.761ZM36.6,47.721a5.524,5.524,0,0,1-.7-4.088,5.38,5.38,0,0,1,2.309-3.4,4.662,4.662,0,0,1,5.362,0,5.387,5.387,0,0,1,2.309,3.4,5.532,5.532,0,0,1-.7,4.088l-4.29,6.93ZM50.419,65.867a7.628,7.628,0,0,0-1,2.573L42.1,56.617l4.8-7.761a7.67,7.67,0,0,0,1.064-2.94l7.4,11.954ZM76.563,47.725,61.025,72.836a5.178,5.178,0,0,1-7.269,1.657h0A5.531,5.531,0,0,1,52.147,67L67.686,41.892a5.235,5.235,0,0,1,3.3-2.38,5.1,5.1,0,0,1,3.967.723,5.39,5.39,0,0,1,2.311,3.4A5.523,5.523,0,0,1,76.563,47.725Zm36.129,12.054a16.326,16.326,0,0,0-4.255-1.814c-1.548-.43-3.189-.876-4.943-1.348-1.627-.4-3.206-.779-4.7-1.128a15.851,15.851,0,0,1-3.883-1.427A7.662,7.662,0,0,1,92.285,51.8a6.108,6.108,0,0,1-.953-3.613,6.859,6.859,0,0,1,.953-3.782,7.69,7.69,0,0,1,2.508-2.441,10.677,10.677,0,0,1,3.5-1.317,19.456,19.456,0,0,1,8.343.125,8.921,8.921,0,0,1,3.456,1.641,8.334,8.334,0,0,1,2.309,2.967,11.729,11.729,0,0,1,.98,4.61l.029.84h2.749l-.046-.917a15.412,15.412,0,0,0-1.28-5.782,10.611,10.611,0,0,0-3.038-3.91,12.034,12.034,0,0,0-4.361-2.136,20.664,20.664,0,0,0-5.29-.644,22.493,22.493,0,0,0-4.675.5,13.634,13.634,0,0,0-4.352,1.716,9.773,9.773,0,0,0-3.253,3.321A9.985,9.985,0,0,0,88.6,48.183a9.323,9.323,0,0,0,1.229,5.009,9.157,9.157,0,0,0,3.186,3.076,17.007,17.007,0,0,0,4.242,1.722c1.512.4,3.025.78,4.487,1.129,1.442.362,2.948.717,4.476,1.053a16.19,16.19,0,0,1,4.012,1.427,8.071,8.071,0,0,1,2.83,2.426,6.883,6.883,0,0,1,1.055,4.067,7.222,7.222,0,0,1-.94,3.78,8.119,8.119,0,0,1-2.521,2.621,11.329,11.329,0,0,1-3.614,1.523,18.084,18.084,0,0,1-4.159.487,19.935,19.935,0,0,1-5.226-.642A10.259,10.259,0,0,1,93.7,73.852,9.054,9.054,0,0,1,91.16,70.3a14.409,14.409,0,0,1-.922-5.481v-.873H87.515l-.013.859a16.661,16.661,0,0,0,1.084,6.581,11.676,11.676,0,0,0,3.266,4.547A13.135,13.135,0,0,0,96.8,78.485a22.543,22.543,0,0,0,6.081.782,21.224,21.224,0,0,0,4.931-.585,13.826,13.826,0,0,0,4.489-1.944,10.776,10.776,0,0,0,3.28-3.469,9.923,9.923,0,0,0,1.269-5.124,10.519,10.519,0,0,0-1.132-5.22A8.884,8.884,0,0,0,112.692,59.779ZM160.836,38.35a1.841,1.841,0,0,0-1.712,1.189l-15.269,38.87h2.974l4.934-12.578a.05.05,0,0,1,.047-.033h17.742a.054.054,0,0,1,.047.033l4.881,12.578h2.965L162.554,39.552A1.839,1.839,0,0,0,160.836,38.35Zm-7.963,24.63,7.952-20.442,7.682,20.442Zm-4.129-8.445a11.689,11.689,0,0,0,.966-4.848c0-3.722-1.1-6.579-3.264-8.5-2.129-1.885-5.119-2.84-8.883-2.84h-13.2a2.738,2.738,0,0,0-2.694,2.775V78.409H124.4V60.968h12.64a16.865,16.865,0,0,0,5.009-.708,11.456,11.456,0,0,0,4.016-2.144A10.042,10.042,0,0,0,148.744,54.534Zm-4.414,1.383a8.5,8.5,0,0,1-2.965,1.657,12.114,12.114,0,0,1-3.8.577H124.4V41.445a.272.272,0,0,1,.268-.276h12.894c3.235,0,5.643.733,7.156,2.182s2.255,3.523,2.255,6.336a8.654,8.654,0,0,1-.7,3.6A7.708,7.708,0,0,1,144.33,55.917Z" transform="translate(-2.393 -37.268)" fill="#fff"/>
</svg>
